<?xml version="1.0" encoding="UTF-8" standalone="no"?>
<!-- The icon can be used freely in both personal and commercial projects with no attribution required, but always appreciated.
You may NOT sub-license, resell, rent, redistribute or otherwise transfer the icon without express written permission from iconmonstr.com -->

<svg
   xmlns:dc="http://purl.org/dc/elements/1.1/"
   xmlns:cc="http://creativecommons.org/ns#"
   xmlns:rdf="http://www.w3.org/1999/02/22-rdf-syntax-ns#"
   xmlns:svg="http://www.w3.org/2000/svg"
   xmlns="http://www.w3.org/2000/svg"
   xmlns:sodipodi="http://sodipodi.sourceforge.net/DTD/sodipodi-0.dtd"
   xmlns:inkscape="http://www.inkscape.org/namespaces/inkscape"
   version="1.1"
   x="0px"
   y="0px"
   width="512px"
   height="512px"
   viewBox="0 0 512 512"
   enable-background="new 0 0 512 512"
   xml:space="preserve"
   id="svg2"
   inkscape:version="0.91 r13725"
   sodipodi:docname="checkmark.svg"><metadata
     id="metadata9"><rdf:RDF><cc:Work
         rdf:about=""><dc:format>image/svg+xml</dc:format><dc:type
           rdf:resource="http://purl.org/dc/dcmitype/StillImage" /><dc:title></dc:title></cc:Work></rdf:RDF></metadata><defs
     id="defs7" /><sodipodi:namedview
     pagecolor="#333333"
     bordercolor="#666666"
     borderopacity="1"
     objecttolerance="10"
     gridtolerance="10"
     guidetolerance="10"
     inkscape:pageopacity="1"
     inkscape:pageshadow="2"
     inkscape:window-width="1260"
     inkscape:window-height="718"
     id="namedview5"
     showgrid="false"
     inkscape:zoom="1.0677185"
     inkscape:cx="311.7263"
     inkscape:cy="256"
     inkscape:window-x="1002"
     inkscape:window-y="308"
     inkscape:window-maximized="0"
     inkscape:current-layer="svg2" /><path
     id="check-mark-4-icon"
     fill="#2CC36B"
     d="M462,256c0,113.771-92.229,206-206,206S50,369.771,50,256S142.229,50,256,50S462,142.229,462,256z    M422,256c0-91.755-74.258-166-166-166c-91.755,0-166,74.259-166,166c0,91.755,74.258,166,166,166C347.755,422,422,347.741,422,256z    M338.224,167.637L222.108,283.753l-50.296-50.31l-37.296,37.303l87.593,87.617l153.428-153.438L338.224,167.637z"
     style="fill:#69c53b;fill-opacity:1" /></svg>